<svg width="31" height="36" viewBox="0 0 31 36" fill="none" xmlns="http://www.w3.org/2000/svg">
<path d="M0.259521 26.6043V10.7769C0.259521 10.3383 0.733362 10.0655 1.11322 10.2835L14.8207 18.1965C15.1731 18.4002 15.3898 18.7761 15.3898 19.1821V35.0094C15.3898 35.448 14.916 35.7208 14.5361 35.5028L0.828653 27.5898C0.476209 27.3862 0.259521 27.0102 0.259521 26.6043Z" fill="#6359FF"/>
<path d="M2.03849 7.94303L15.5319 0.152726C15.8843 -0.0509085 16.3177 -0.0509085 16.6701 0.152726L30.1635 7.94303C30.6373 8.21716 30.6373 8.90116 30.1635 9.17528L16.6701 16.9656C16.3177 17.1692 15.8843 17.1692 15.5319 16.9656L2.03849 9.17528C1.56465 8.90116 1.56465 8.21716 2.03849 7.94303Z" fill="#FFC806"/>
<path d="M16.8127 35.0107V20.3334C16.8127 19.8948 17.2866 19.622 17.6664 19.84L30.1638 27.0559C30.6377 27.3301 30.6377 28.0141 30.1638 28.2882L17.6664 35.5041C17.2866 35.7234 16.8127 35.4493 16.8127 35.0107Z" fill="#0BBFBF"/>
</svg>
