<svg xmlns="http://www.w3.org/2000/svg" width="1em" height="1em" aria-hidden="true" viewBox="0 0 24 24" class="nimbus-icon css-1nxk4vr"><defs>
    <style>
      path {
        color-scheme: light;
        fill: hsla(238, 100%, 37%, 0.69);
        stroke: hsla(238, 100%, 37%, 0.69);
      }
      @media (prefers-color-scheme:dark) {
        path {
          fill: hsla(231, 100%, 81%, 1);
          stroke: hsla(231, 100%, 81%, 1);
        }
      }
    </style>
  </defs><path fill="currentColor" stroke="currentColor" d="M19.35 10.04A7.49 7.49 0 0 0 12 4a7.48 7.48 0 0 0-6.64 4.04A5.996 5.996 0 0 0 0 14c0 3.31 2.69 6 6 6h13c2.76 0 5-2.24 5-5 0-2.64-2.05-4.78-4.65-4.96M19 18H6c-2.21 0-4-1.79-4-4s1.79-4 4-4 4 1.79 4 4h2c0-2.76-1.86-5.08-4.4-5.78C8.61 6.88 10.2 6 12 6c3.03 0 5.5 2.47 5.5 5.5v.5H19c1.65 0 3 1.35 3 3s-1.35 3-3 3"></path></svg>